<?xml version="1.0" standalone="no"?>
<!DOCTYPE svg PUBLIC "-//W3C//DTD SVG 20010904//EN"
 "http://www.w3.org/TR/2001/REC-SVG-20010904/DTD/svg10.dtd">
<svg version="1.0" xmlns="http://www.w3.org/2000/svg"
 width="3591.000000pt" height="3591.000000pt" viewBox="0 0 3591.000000 3591.000000"
 preserveAspectRatio="xMidYMid meet">
<metadata>
Created by potrace 1.14, written by Peter Selinger 2001-2017
</metadata>
<g transform="translate(0.000000,3591.000000) scale(0.100000,-0.100000)"
fill="#000000" stroke="none">
<path d="M17478 35905 c-2 -2 -86 -6 -188 -10 -243 -9 -264 -10 -565 -30 -123
-8 -391 -31 -475 -40 -25 -3 -70 -7 -100 -10 -30 -3 -71 -7 -90 -9 -19 -3 -62
-8 -95 -11 -33 -4 -71 -8 -85 -10 -14 -1 -50 -6 -80 -10 -66 -8 -99 -13 -165
-20 -27 -4 -63 -9 -80 -12 -16 -3 -41 -6 -55 -8 -24 -3 -103 -14 -145 -20 -11
-2 -40 -6 -65 -10 -25 -3 -58 -9 -75 -11 -16 -3 -39 -7 -50 -9 -80 -11 -113
-16 -135 -20 -57 -12 -76 -15 -110 -20 -20 -3 -47 -8 -60 -10 -14 -3 -38 -7
-55 -10 -16 -3 -52 -10 -80 -15 -27 -5 -63 -12 -80 -15 -39 -7 -74 -13 -105
-21 -14 -3 -36 -7 -50 -9 -23 -3 -81 -15 -105 -21 -5 -1 -21 -4 -35 -7 -14 -3
-70 -15 -125 -27 -55 -12 -109 -24 -120 -26 -11 -2 -30 -6 -42 -9 -13 -3 -32
-7 -44 -10 -11 -2 -28 -6 -37 -9 -9 -3 -32 -8 -51 -11 -19 -3 -37 -8 -41 -10
-3 -2 -17 -6 -31 -9 -13 -2 -55 -12 -94 -21 -38 -9 -86 -20 -105 -24 -19 -5
-98 -25 -175 -45 -77 -21 -147 -39 -155 -41 -8 -2 -49 -13 -90 -25 -41 -11
-82 -23 -90 -25 -8 -1 -35 -9 -60 -16 -25 -7 -47 -13 -50 -14 -6 -1 -98 -28
-195 -57 -96 -28 -197 -59 -215 -66 -8 -3 -20 -6 -27 -8 -16 -3 -162 -51 -233
-76 -58 -20 -59 -21 -105 -33 -16 -4 -34 -10 -40 -14 -5 -3 -14 -6 -20 -7 -15
-4 -227 -77 -325 -114 -47 -17 -96 -35 -110 -39 -28 -10 -298 -112 -345 -132
-16 -6 -34 -13 -40 -14 -10 -3 -360 -146 -400 -164 -11 -5 -46 -21 -77 -35
-31 -14 -59 -26 -62 -26 -5 0 -31 -12 -179 -79 -37 -17 -69 -31 -72 -31 -2 0
-46 -20 -98 -45 -52 -25 -100 -45 -106 -45 -6 0 -11 -4 -11 -10 0 -5 -5 -10
-11 -10 -12 0 -233 -102 -259 -120 -8 -6 -28 -15 -44 -22 -29 -11 -139 -67
-396 -200 -129 -68 -168 -88 -297 -160 -32 -17 -78 -42 -103 -56 -25 -14 -92
-52 -150 -85 -58 -33 -118 -68 -135 -77 -175 -100 -508 -303 -693 -423 -56
-37 -107 -67 -113 -67 -5 0 -12 -7 -15 -15 -4 -8 -12 -15 -18 -15 -7 0 -21 -8
-32 -17 -10 -10 -31 -24 -46 -32 -15 -8 -36 -22 -46 -31 -10 -10 -29 -23 -43
-30 -20 -11 -203 -137 -399 -275 -140 -98 -542 -398 -650 -484 -24 -20 -51
-41 -60 -48 -48 -37 -255 -205 -310 -251 -36 -30 -74 -61 -85 -71 -11 -9 -50
-41 -85 -71 -36 -30 -71 -59 -78 -65 -7 -5 -21 -17 -30 -26 -9 -9 -78 -69
-152 -134 -287 -250 -556 -503 -875 -825 -123 -124 -258 -261 -299 -305 -41
-44 -90 -96 -108 -115 -191 -199 -540 -599 -776 -890 -78 -96 -148 -181 -155
-189 -6 -8 -62 -80 -124 -160 -62 -80 -116 -151 -121 -156 -112 -133 -732
-1018 -732 -1045 0 -6 -4 -10 -8 -10 -4 0 -16 -15 -27 -32 -10 -18 -47 -77
-82 -130 -35 -54 -63 -99 -63 -101 0 -3 -18 -32 -40 -65 -22 -33 -40 -64 -40
-70 0 -6 -3 -12 -7 -14 -8 -3 -133 -204 -133 -213 0 -2 -13 -23 -29 -47 -15
-24 -39 -63 -53 -88 -14 -25 -61 -108 -105 -185 -104 -181 -138 -244 -263
-475 -66 -123 -420 -833 -420 -843 0 -4 -20 -50 -45 -103 -39 -83 -207 -466
-252 -574 -8 -19 -18 -44 -23 -55 -16 -35 -142 -350 -144 -360 -1 -5 -9 -26
-18 -45 -8 -19 -23 -57 -32 -85 -10 -27 -22 -59 -26 -70 -22 -52 -41 -111 -38
-116 2 -3 -2 -12 -8 -20 -9 -11 -31 -67 -39 -99 -1 -3 -5 -14 -9 -25 -5 -11
-15 -38 -23 -60 -15 -40 -183 -541 -188 -560 -1 -5 -5 -17 -8 -25 -10 -25 -68
-217 -72 -237 -2 -10 -4 -19 -5 -20 -2 -2 -3 -6 -4 -10 -1 -5 -12 -42 -25 -83
-13 -41 -25 -86 -28 -99 -2 -14 -6 -28 -9 -33 -4 -6 -26 -82 -39 -138 -2 -8
-14 -49 -25 -90 -12 -41 -23 -82 -25 -90 -2 -8 -29 -116 -60 -239 -31 -122
-58 -230 -60 -240 -1 -9 -8 -34 -13 -56 -11 -41 -14 -54 -32 -139 -5 -26 -15
-66 -20 -88 -6 -21 -13 -51 -15 -66 -1 -15 -8 -45 -14 -67 -5 -22 -13 -53 -15
-70 -3 -16 -8 -41 -11 -55 -3 -14 -8 -38 -10 -55 -3 -16 -8 -37 -11 -46 -2
-10 -7 -30 -9 -45 -5 -37 -14 -83 -21 -114 -3 -13 -7 -38 -10 -55 -2 -16 -6
-41 -9 -55 -3 -14 -8 -41 -11 -60 -8 -50 -13 -81 -19 -110 -2 -13 -7 -42 -10
-65 -3 -22 -8 -47 -10 -55 -2 -8 -7 -37 -11 -65 -3 -27 -7 -59 -9 -70 -10 -69
-16 -104 -20 -125 -2 -13 -7 -46 -10 -74 -3 -28 -8 -62 -10 -76 -2 -14 -6 -45
-9 -70 -3 -25 -8 -55 -11 -68 -2 -13 -7 -53 -11 -90 -3 -37 -8 -78 -9 -92 -2
-14 -6 -47 -9 -75 -18 -157 -32 -292 -41 -400 -4 -38 -8 -88 -10 -110 -13
-157 -18 -216 -20 -255 -19 -289 -18 -265 -32 -570 -10 -234 -11 -13651 0
-13780 14 -168 32 -341 43 -394 2 -11 6 -38 9 -61 10 -66 16 -98 19 -104 2 -3
7 -28 10 -56 4 -27 9 -58 12 -67 5 -16 11 -45 19 -83 12 -60 25 -116 40 -170
9 -33 18 -69 20 -79 3 -10 9 -33 15 -51 6 -18 12 -41 15 -51 4 -21 81 -260 92
-284 3 -8 7 -19 8 -25 5 -19 103 -261 130 -320 15 -33 27 -61 26 -62 -5 -15
274 -534 291 -541 4 -2 8 -8 8 -14 0 -16 196 -309 290 -433 253 -334 557 -651
870 -903 36 -28 72 -58 80 -65 87 -78 388 -281 585 -397 116 -69 413 -220 555
-283 36 -16 196 -77 215 -81 6 -2 19 -6 30 -10 74 -28 95 -36 98 -35 1 0 9 -2
17 -5 24 -8 260 -77 281 -82 10 -2 28 -6 39 -9 11 -3 28 -7 38 -9 9 -2 44 -11
77 -20 33 -8 74 -17 90 -20 17 -3 41 -8 55 -11 14 -3 36 -7 50 -10 14 -3 35
-7 46 -9 12 -2 39 -7 60 -10 22 -4 68 -11 104 -17 36 -6 81 -12 100 -15 19 -2
51 -6 70 -9 32 -4 84 -10 195 -21 231 -22 718 -22 915 0 19 3 67 7 105 11 91
9 119 12 180 19 89 11 202 27 230 32 23 5 61 12 108 19 46 8 250 55 257 60 4
2 17 6 31 8 70 13 390 111 444 136 19 9 45 18 55 19 8 1 150 61 208 88 29 13
55 24 58 24 9 0 302 145 374 186 130 72 255 147 258 156 2 4 8 8 13 8 12 0
196 123 299 199 214 158 407 320 589 496 46 44 89 85 95 91 24 23 206 222 246
269 23 28 49 57 56 65 152 168 433 568 586 835 89 155 222 417 279 553 22 53
47 111 55 127 38 84 168 455 179 510 2 11 4 21 6 23 1 1 2 5 3 10 2 4 8 27 15
52 7 25 14 50 15 55 1 6 5 19 9 30 3 11 8 31 11 45 3 14 7 35 10 47 4 13 8 32
11 44 2 11 6 28 9 37 3 9 7 28 10 42 2 14 11 59 19 100 9 41 18 92 21 113 10
61 17 108 22 131 2 11 6 44 9 71 3 28 8 70 10 95 3 25 7 68 10 95 3 28 8 84
11 125 3 41 7 2982 9 6535 1 3553 5 6510 9 6570 3 61 8 133 11 160 2 28 7 84
10 125 4 41 8 89 10 105 2 17 6 61 10 98 3 37 8 78 11 90 2 12 6 38 9 57 12
95 15 117 19 139 3 13 8 49 12 80 3 31 8 59 11 63 2 4 6 20 8 35 3 28 10 67
20 113 3 14 8 39 10 55 3 17 8 37 10 45 2 8 7 31 10 50 3 19 8 43 11 52 4 15
8 32 19 83 3 11 21 81 40 155 41 152 37 140 54 200 8 25 14 50 16 55 1 6 4 17
8 25 5 14 60 188 62 200 1 3 5 12 8 20 3 8 15 44 27 80 11 36 25 74 29 85 14
31 63 159 66 170 3 16 16 46 36 91 11 22 19 43 19 47 0 4 9 26 19 50 11 23 36
78 55 121 20 43 36 85 36 92 0 8 5 14 10 14 6 0 10 6 10 13 0 11 166 346 222
447 14 25 40 72 58 105 84 152 363 585 382 593 4 2 8 8 8 13 0 8 154 221 197
274 5 6 35 44 68 85 308 388 707 792 1090 1105 61 49 112 92 115 95 3 3 41 32
85 65 44 32 85 63 90 68 16 13 191 138 280 198 44 30 141 92 215 138 74 46
152 94 172 107 21 13 42 24 48 24 5 0 10 4 10 8 0 4 12 13 28 19 15 6 56 28
92 49 81 46 407 211 480 243 30 13 78 34 105 47 99 44 365 152 390 158 6 2 24
8 40 15 35 14 383 131 405 136 8 2 60 17 115 33 100 29 295 80 343 88 14 3 29
7 33 9 4 3 24 7 45 10 22 4 47 8 56 11 21 6 80 18 143 29 17 3 41 8 55 10 14
3 36 8 50 10 14 3 41 8 60 11 19 3 49 7 65 10 81 14 142 23 190 29 149 19 176
22 270 30 39 4 86 8 105 10 204 20 881 27 1120 11 189 -13 190 -13 270 -21
185 -19 292 -32 345 -41 10 -2 37 -6 60 -9 66 -10 329 -55 345 -60 17 -5 59
-13 110 -21 74 -11 170 -30 198 -38 9 -3 28 -7 42 -10 68 -14 89 -19 156 -37
40 -11 81 -22 91 -24 10 -2 52 -14 93 -25 41 -12 80 -23 85 -24 6 -1 16 -5 23
-9 6 -5 12 -6 12 -3 0 3 16 -2 35 -10 19 -8 35 -11 35 -8 0 4 6 2 13 -4 10 -8
101 -38 142 -48 6 -1 78 -27 160 -59 83 -31 155 -57 160 -59 6 -1 19 -7 30
-13 11 -6 22 -11 25 -11 3 0 19 -6 35 -12 17 -7 39 -16 50 -21 171 -68 593
-273 737 -358 47 -28 89 -51 92 -51 4 0 30 -16 59 -35 28 -19 57 -35 64 -35 6
0 13 -3 15 -8 2 -4 28 -23 58 -41 105 -65 355 -235 450 -304 84 -62 317 -243
330 -257 3 -3 70 -61 150 -130 172 -147 499 -473 659 -655 184 -210 454 -556
533 -683 9 -15 21 -31 25 -37 17 -20 122 -183 190 -295 121 -200 194 -333 291
-525 112 -224 164 -342 248 -553 36 -92 69 -176 74 -187 5 -11 20 -56 35 -100
15 -44 30 -87 33 -95 3 -8 6 -18 7 -22 2 -5 4 -10 5 -13 3 -5 3 -6 15 -50 4
-16 10 -34 14 -40 3 -5 6 -14 8 -20 1 -5 11 -41 23 -80 12 -38 22 -74 24 -80
1 -5 8 -30 15 -55 7 -25 15 -52 16 -60 2 -8 11 -40 19 -72 8 -31 17 -67 20
-80 2 -12 7 -30 10 -38 3 -8 8 -26 10 -40 3 -14 7 -34 10 -45 15 -66 26 -114
30 -140 3 -16 8 -41 11 -55 3 -14 7 -36 10 -50 3 -14 7 -35 9 -46 2 -12 7 -37
10 -55 3 -19 8 -51 11 -73 4 -21 9 -48 11 -60 2 -11 7 -41 10 -66 3 -25 8 -58
11 -75 8 -49 13 -87 18 -145 3 -30 7 -69 10 -87 2 -18 7 -70 10 -115 4 -46 9
-99 10 -118 18 -186 22 -512 11 -745 -12 -233 -14 -270 -23 -425 -10 -184 -11
-12319 0 -12460 8 -104 13 -163 21 -230 12 -106 19 -157 22 -175 3 -11 7 -39
10 -61 6 -48 11 -79 18 -102 3 -9 7 -35 10 -57 3 -22 7 -49 10 -60 2 -11 14
-63 26 -115 12 -52 23 -102 25 -110 13 -60 37 -149 46 -170 5 -14 11 -36 14
-49 5 -25 22 -85 32 -111 4 -8 7 -17 8 -20 9 -38 41 -128 48 -137 5 -7 7 -13
3 -13 -4 0 1 -14 10 -31 8 -17 17 -38 19 -47 2 -10 9 -30 16 -47 7 -16 13 -33
13 -37 1 -3 4 -10 9 -14 4 -4 7 -13 7 -21 0 -7 13 -41 28 -75 16 -35 46 -101
67 -148 46 -102 156 -323 164 -330 4 -3 15 -24 25 -47 11 -24 23 -43 28 -43 4
0 8 -5 8 -12 0 -29 250 -410 389 -592 254 -332 654 -736 937 -947 32 -24 61
-47 64 -50 8 -10 222 -162 280 -199 30 -19 57 -38 58 -42 2 -5 8 -8 14 -8 5 0
33 -15 61 -34 121 -79 427 -244 577 -310 92 -41 240 -105 243 -105 3 0 47 -17
90 -34 20 -9 38 -16 40 -16 1 0 9 -2 17 -5 132 -47 412 -133 462 -141 15 -3
38 -9 52 -15 15 -5 26 -8 26 -5 0 2 18 -2 40 -10 22 -8 40 -12 40 -10 0 3 11
0 26 -5 14 -6 43 -12 66 -15 22 -3 43 -7 47 -9 3 -2 25 -7 47 -10 22 -4 51 -9
64 -11 14 -3 41 -7 60 -10 19 -3 46 -7 60 -10 22 -4 46 -8 140 -20 258 -34
716 -49 950 -32 173 13 204 16 265 22 33 3 76 8 95 10 50 5 122 14 145 19 11
2 40 7 65 10 25 3 55 8 66 10 12 2 37 7 55 10 34 6 68 12 104 20 95 21 173 38
188 42 9 2 26 6 37 9 11 3 28 7 39 9 10 2 51 14 91 26 40 12 81 23 91 25 11 2
24 7 29 10 5 3 18 8 29 10 34 6 296 98 306 106 5 5 15 9 23 9 12 0 51 16 177
70 27 11 158 72 253 117 42 20 89 45 105 55 15 11 27 17 27 14 0 -7 264 146
268 155 2 5 8 9 13 9 35 0 444 292 625 446 180 153 477 443 574 561 8 10 49
59 91 108 41 50 105 131 142 180 37 50 75 99 83 110 24 31 199 296 222 335 11
19 43 76 72 125 58 99 182 339 219 425 13 30 34 78 46 105 12 28 42 100 65
160 23 61 46 119 51 130 6 17 30 89 34 105 1 3 5 14 9 25 20 52 27 72 31 90 2
11 18 67 35 125 35 120 30 101 63 245 27 117 48 217 53 250 1 11 7 45 13 75 6
30 13 75 16 100 4 25 9 61 12 80 3 19 7 51 8 70 5 54 16 150 22 200 4 25 8
1451 10 3170 3 2543 6 3132 16 3160 11 29 13 697 12 3670 -1 1999 -5 3714 -9
3810 -9 216 -12 276 -31 580 -4 60 -13 179 -20 250 -2 25 -7 77 -10 115 -8
103 -15 176 -20 215 -2 19 -7 63 -10 98 -4 35 -8 72 -10 83 -2 11 -7 51 -10
89 -3 38 -8 77 -9 87 -2 10 -7 47 -11 83 -4 36 -9 74 -11 85 -2 11 -6 38 -9
60 -7 54 -17 125 -20 150 -2 11 -6 40 -10 65 -3 25 -10 70 -15 100 -6 30 -12
73 -15 95 -10 68 -15 99 -31 188 -3 17 -7 41 -9 52 -1 11 -5 34 -8 50 -4 17
-9 46 -12 65 -3 19 -8 49 -12 65 -4 17 -7 35 -8 40 -1 13 -14 77 -26 135 -5
25 -11 61 -14 80 -4 19 -11 55 -16 80 -6 25 -13 54 -15 65 -4 19 -6 31 -19 88
-6 25 -12 57 -20 102 -3 17 -8 38 -11 47 -6 19 -13 52 -20 88 -3 21 -10 49
-19 80 -4 15 -16 68 -20 88 -2 13 -7 32 -10 42 -6 18 -11 40 -21 90 -3 14 -14
59 -26 100 -11 41 -21 83 -23 93 -2 10 -7 27 -10 37 -3 10 -7 27 -9 37 -2 10
-10 38 -17 63 -14 50 -16 56 -23 85 -3 11 -10 36 -15 55 -16 56 -31 114 -36
130 -2 8 -4 16 -5 18 -2 1 -3 5 -4 10 -9 39 -52 191 -64 222 -3 8 -6 17 -6 20
-2 11 -28 92 -88 280 -34 107 -63 200 -64 205 -3 13 -82 246 -91 265 -3 8 -7
17 -8 20 -6 25 -18 59 -25 75 -5 11 -16 40 -24 65 -14 45 -40 117 -56 155 -5
11 -16 43 -25 70 -10 28 -23 64 -31 80 -7 17 -36 91 -64 165 -54 140 -172 428
-211 515 -13 28 -24 55 -25 60 -3 12 -81 189 -135 303 -21 46 -39 85 -39 87 0
11 -320 667 -329 675 -3 3 -27 48 -53 100 -27 52 -67 131 -91 175 -24 44 -65
121 -91 170 -27 50 -52 95 -56 100 -4 6 -20 33 -35 60 -24 46 -153 269 -175
305 -5 8 -47 78 -93 156 -118 198 -289 468 -299 472 -4 2 -8 8 -8 13 0 13
-330 503 -341 507 -5 2 -9 7 -9 12 0 21 -527 735 -588 796 -16 16 -71 83 -123
149 -52 66 -101 129 -110 140 -10 11 -70 85 -135 165 -102 126 -256 309 -328
390 -303 343 -305 345 -556 609 -154 162 -476 485 -589 591 -146 136 -330 307
-376 348 -27 24 -68 61 -90 81 -87 81 -398 346 -550 470 -11 9 -56 46 -100 82
-207 170 -697 541 -855 647 -30 20 -57 40 -60 43 -33 40 -973 653 -1107 722
-18 10 -51 30 -75 45 -24 16 -68 42 -98 58 -30 16 -57 32 -60 35 -6 6 -291
168 -415 235 -49 26 -126 67 -170 91 -173 94 -755 381 -785 388 -3 1 -25 11
-50 23 -95 45 -200 92 -205 92 -4 0 -32 12 -63 26 -31 14 -66 30 -77 34 -11 5
-41 18 -67 29 -26 12 -49 21 -51 21 -3 0 -22 8 -43 17 -22 9 -41 17 -44 18 -3
1 -23 9 -45 19 -22 10 -44 19 -50 20 -5 1 -28 10 -50 20 -22 10 -44 19 -50 20
-5 2 -21 8 -35 13 -133 56 -667 255 -715 266 -5 1 -14 5 -20 8 -5 4 -23 10
-40 14 -16 5 -34 9 -40 11 -5 1 -44 15 -85 29 -41 15 -124 43 -185 62 -192 61
-429 134 -445 138 -8 2 -27 8 -42 14 -16 6 -28 9 -28 6 0 -2 -16 3 -35 11 -19
8 -35 12 -35 9 0 -3 -8 -1 -18 4 -11 6 -30 12 -43 14 -14 3 -58 15 -98 27 -41
12 -81 23 -90 25 -9 2 -41 10 -72 19 -31 9 -66 19 -78 21 -13 2 -31 7 -41 10
-10 3 -27 8 -37 10 -10 3 -65 16 -123 31 -58 14 -116 28 -129 30 -14 3 -28 7
-31 9 -4 2 -22 7 -41 10 -19 3 -52 11 -74 16 -22 6 -47 13 -55 14 -8 2 -49 11
-90 20 -41 9 -86 19 -100 21 -14 3 -33 7 -42 10 -10 3 -28 7 -40 10 -48 9 -70
13 -86 18 -9 3 -33 7 -52 10 -35 6 -64 11 -110 21 -23 5 -85 18 -150 30 -14 3
-36 7 -50 10 -14 2 -38 7 -55 10 -16 3 -41 7 -55 10 -14 3 -38 7 -55 10 -16 2
-41 6 -55 9 -14 3 -41 8 -60 10 -19 3 -46 8 -60 10 -14 3 -41 8 -60 10 -19 3
-44 7 -55 9 -18 4 -67 12 -135 22 -14 2 -47 7 -75 11 -27 3 -59 8 -70 10 -11
2 -40 7 -65 10 -25 3 -56 7 -70 9 -47 7 -122 17 -240 30 -14 1 -50 6 -80 10
-62 8 -78 10 -170 20 -36 4 -76 8 -90 10 -44 5 -185 18 -335 30 -44 4 -98 9
-120 10 -36 3 -168 13 -270 20 -22 2 -103 6 -180 10 -77 4 -174 9 -215 12 -88
5 -1317 13 -1322 8z"/>
<path d="M17908 21735 c-1 -2 -41 -6 -88 -9 -82 -6 -100 -8 -200 -21 -94 -12
-186 -29 -331 -61 -13 -3 -35 -7 -48 -10 -14 -3 -28 -7 -31 -9 -4 -2 -20 -7
-37 -9 -30 -6 -154 -42 -183 -53 -8 -4 -17 -7 -20 -8 -173 -43 -581 -230 -820
-375 -452 -274 -866 -648 -1194 -1075 -42 -55 -81 -105 -86 -112 -13 -15 -194
-287 -219 -328 -19 -30 -56 -94 -99 -170 -61 -108 -244 -489 -248 -515 0 -3
-6 -16 -12 -30 -27 -59 -119 -312 -124 -340 -1 -3 -12 -35 -25 -72 -13 -38
-25 -76 -27 -85 -1 -10 -5 -25 -8 -33 -3 -8 -11 -35 -18 -59 -11 -42 -14 -52
-25 -102 -2 -11 -7 -29 -10 -39 -3 -10 -8 -29 -11 -42 -12 -53 -15 -68 -29
-130 -8 -36 -17 -82 -20 -98 -1 -8 -4 -28 -8 -45 -3 -16 -9 -46 -11 -65 -3
-19 -8 -44 -10 -56 -2 -12 -7 -45 -11 -75 -3 -30 -8 -61 -10 -69 -2 -8 -7 -44
-11 -80 -3 -36 -8 -78 -9 -95 -6 -51 -17 -197 -21 -265 -3 -64 -11 -585 -19
-1250 -2 -190 -8 -604 -12 -920 -10 -734 -11 -10120 0 -10260 4 -58 9 -121 11
-140 3 -19 7 -60 11 -90 3 -30 8 -71 10 -90 3 -19 7 -53 10 -75 3 -22 7 -51
10 -65 2 -13 7 -40 10 -60 3 -20 8 -47 10 -60 3 -14 7 -36 10 -50 3 -14 7 -36
10 -50 3 -14 8 -41 11 -60 3 -19 12 -62 21 -95 8 -33 17 -68 19 -78 2 -10 6
-27 9 -37 3 -10 8 -29 10 -42 17 -87 159 -521 205 -623 5 -11 28 -64 50 -119
287 -685 765 -1337 1310 -1784 58 -48 107 -89 110 -93 15 -17 271 -194 375
-258 180 -111 439 -242 505 -255 3 -1 10 -4 15 -7 8 -5 105 -39 125 -44 3 -1
12 -5 20 -8 8 -3 42 -14 75 -23 33 -10 65 -19 70 -21 97 -28 124 -35 145 -39
14 -3 39 -9 55 -14 17 -5 44 -11 60 -14 17 -3 41 -7 55 -11 14 -3 37 -7 52
-10 15 -2 35 -6 45 -9 10 -2 38 -7 63 -10 25 -3 54 -8 65 -10 11 -2 47 -7 80
-11 33 -4 74 -8 90 -11 163 -22 602 -22 770 0 17 2 59 7 95 11 36 4 74 9 85
11 11 2 40 6 65 9 79 9 170 22 210 31 14 3 37 7 52 9 115 17 489 128 623 185
28 11 63 26 80 33 16 7 101 47 190 91 136 67 218 113 366 205 73 45 258 175
306 215 10 8 46 38 81 65 241 190 528 483 751 765 125 158 328 457 397 586 10
19 25 42 32 51 19 25 224 433 267 534 62 147 170 430 180 475 2 8 15 51 30 95
14 44 27 87 29 95 2 8 5 22 9 30 6 16 36 131 42 158 2 9 13 60 25 112 27 116
29 127 35 165 3 17 8 37 10 45 2 8 7 35 11 60 9 67 11 81 19 125 16 97 24 165
42 370 10 117 10 12219 0 12350 -4 55 -10 116 -12 135 -2 19 -6 57 -9 84 -3
26 -8 65 -11 85 -2 20 -7 52 -9 71 -9 66 -24 158 -42 255 -5 31 -32 157 -40
190 -3 11 -7 29 -9 40 -3 11 -14 56 -25 100 -12 44 -23 87 -25 96 -2 9 -14 49
-26 90 -13 41 -24 77 -25 82 -1 4 -3 9 -4 12 -1 3 -4 10 -5 15 -1 6 -4 12 -5
15 -3 5 -3 6 -15 50 -4 17 -13 36 -19 44 -6 8 -9 15 -6 15 6 1 -26 90 -80 226
-128 320 -316 677 -497 945 -449 664 -1033 1184 -1688 1504 -149 72 -377 170
-409 175 -6 1 -15 4 -21 8 -5 3 -26 10 -45 16 -19 6 -73 22 -120 37 -105 33
-296 80 -405 99 -16 3 -41 8 -55 11 -24 5 -65 11 -142 20 -24 3 -59 8 -78 10
-19 3 -57 7 -85 10 -57 7 -581 15 -587 10z"/>
</g>
</svg>
